REM DIRINDEX 1\2\4,1\2\5,1\2\6,1\3\7,1\3\8,1\3\9,1\3\10
REM DIRNAME cjc058,folder01,folder02,folder03,folder04,folder05,folder06,folder07,folder08,folder09
TITLE ""
FILE "a_48.mp3" MP3
  TRACK 01 AUDIO
    TITLE "0:"
    INDEX 01 00:00:00
  TRACK 02 AUDIO
    TITLE "6:cjc058_1359"
    INDEX 01 00:00:13
  TRACK 03 AUDIO
    TITLE "0:"
    INDEX 01 00:02:65
  TRACK 04 AUDIO
    TITLE "4:cjc058_1360"
    INDEX 01 00:03:33
  TRACK 05 AUDIO
    TITLE "0:"
    INDEX 01 00:04:60
  TRACK 06 AUDIO
    TITLE "5:cjc058_1361"
    INDEX 01 00:05:14
  TRACK 07 AUDIO
    TITLE "0:"
    INDEX 01 00:06:06
  TRACK 08 AUDIO
    TITLE "4:cjc058_1362"
    INDEX 01 00:07:09
  TRACK 09 AUDIO
    TITLE "0:"
    INDEX 01 00:08:28
  TRACK 10 AUDIO
    TITLE "5:cjc058_1363"
    INDEX 01 00:08:58
  TRACK 11 AUDIO
    TITLE "0:"
    INDEX 01 00:11:03
  TRACK 12 AUDIO
    TITLE "4:cjc058_1364"
    INDEX 01 00:12:07
  TRACK 13 AUDIO
    TITLE "0:"
    INDEX 01 00:13:57
  TRACK 14 AUDIO
    TITLE "5:cjc058_1365"
    INDEX 01 00:14:11
  TRACK 15 AUDIO
    TITLE "0:"
    INDEX 01 00:15:44
  TRACK 16 AUDIO
    TITLE "4:cjc058_1366"
    INDEX 01 00:16:48
  TRACK 17 AUDIO
    TITLE "0:"
    INDEX 01 00:18:05
  TRACK 18 AUDIO
    TITLE "5:cjc058_1367"
    INDEX 01 00:18:35
  TRACK 19 AUDIO
    TITLE "0:"
    INDEX 01 00:19:65
  TRACK 20 AUDIO
    TITLE "4:cjc058_1368"
    INDEX 01 00:20:69
  TRACK 21 AUDIO
    TITLE "0:"
    INDEX 01 00:22:15
  TRACK 22 AUDIO
    TITLE "5:cjc058_1369"
    INDEX 01 00:22:44
  TRACK 23 AUDIO
    TITLE "0:"
    INDEX 01 00:25:07
  TRACK 24 AUDIO
    TITLE "4:cjc058_1370"
    INDEX 01 00:26:11
  TRACK 25 AUDIO
    TITLE "0:"
    INDEX 01 00:27:36
  TRACK 26 AUDIO
    TITLE "5:cjc058_1371"
    INDEX 01 00:27:67
  TRACK 27 AUDIO
    TITLE "0:"
    INDEX 01 00:29:07
  TRACK 28 AUDIO
    TITLE "4:cjc058_1372"
    INDEX 01 00:30:12
  TRACK 29 AUDIO
    TITLE "0:"
    INDEX 01 00:31:31
  TRACK 30 AUDIO
    TITLE "5:cjc058_1373"
    INDEX 01 00:31:55
  TRACK 31 AUDIO
    TITLE "0:"
    INDEX 01 00:34:14
  TRACK 32 AUDIO
    TITLE "4:cjc058_1374"
    INDEX 01 00:35:17
  TRACK 33 AUDIO
    TITLE "0:"
    INDEX 01 00:36:68
  TRACK 34 AUDIO
    TITLE "5:cjc058_1375"
    INDEX 01 00:37:22
  TRACK 35 AUDIO
    TITLE "0:"
    INDEX 01 00:39:39
  TRACK 36 AUDIO
    TITLE "4:cjc058_1376"
    INDEX 01 00:40:40
  TRACK 37 AUDIO
    TITLE "0:"
    INDEX 01 00:42:12
  TRACK 38 AUDIO
    TITLE "5:cjc058_1377"
    INDEX 01 00:42:41
  TRACK 39 AUDIO
    TITLE "0:"
    INDEX 01 00:45:00
  TRACK 40 AUDIO
    TITLE "4:cjc058_1378"
    INDEX 01 00:46:04
  TRACK 41 AUDIO
    TITLE "0:"
    INDEX 01 00:47:34
  TRACK 42 AUDIO
    TITLE "5:cjc058_1379"
    INDEX 01 00:47:64
  TRACK 43 AUDIO
    TITLE "0:"
    INDEX 01 00:50:41
  TRACK 44 AUDIO
    TITLE "4:cjc058_1380"
    INDEX 01 00:51:46
  TRACK 45 AUDIO
    TITLE "0:"
    INDEX 01 00:52:73
  TRACK 46 AUDIO
    TITLE "5:cjc058_1381"
    INDEX 01 00:53:27
  TRACK 47 AUDIO
    TITLE "0:"
    INDEX 01 00:55:32
  TRACK 48 AUDIO
    TITLE "4:cjc058_1382"
    INDEX 01 00:56:35
  TRACK 49 AUDIO
    TITLE "0:"
    INDEX 01 00:58:01
  TRACK 50 AUDIO
    TITLE "5:cjc058_1383"
    INDEX 01 00:58:28
  TRACK 51 AUDIO
    TITLE "0:"
    INDEX 01 01:01:03
  TRACK 52 AUDIO
    TITLE "4:cjc058_1384"
    INDEX 01 01:02:06
  TRACK 53 AUDIO
    TITLE "0:"
    INDEX 01 01:03:49
  TRACK 54 AUDIO
    TITLE "5:cjc058_1385"
    INDEX 01 01:04:03
  TRACK 55 AUDIO
    TITLE "0:"
    INDEX 01 01:06:47
  TRACK 56 AUDIO
    TITLE "4:cjc058_1386"
    INDEX 01 01:07:51
  TRACK 57 AUDIO
    TITLE "0:"
    INDEX 01 01:09:16
  TRACK 58 AUDIO
    TITLE "5:cjc058_1387"
    INDEX 01 01:09:46
  TRACK 59 AUDIO
    TITLE "0:"
    INDEX 01 01:12:19
  TRACK 60 AUDIO
    TITLE "4:cjc058_1388"
    INDEX 01 01:13:26
  TRACK 61 AUDIO
    TITLE "0:"
    INDEX 01 01:14:61
  TRACK 62 AUDIO
    TITLE "5:cjc058_1389"
    INDEX 01 01:15:15
  TRACK 63 AUDIO
    TITLE "0:"
    INDEX 01 01:17:45
  TRACK 64 AUDIO
    TITLE "4:cjc058_1390"
    INDEX 01 01:18:45
  TRACK 65 AUDIO
    TITLE "0:"
    INDEX 01 01:19:68
  TRACK 66 AUDIO
    TITLE "5:cjc058_1391"
    INDEX 01 01:20:24
  TRACK 67 AUDIO
    TITLE "0:"
    INDEX 01 01:22:41
  TRACK 68 AUDIO
    TITLE "4:cjc058_1392"
    INDEX 01 01:23:44
  TRACK 69 AUDIO
    TITLE "0:"
    INDEX 01 01:25:04
  TRACK 70 AUDIO
    TITLE "5:cjc058_1393"
    INDEX 01 01:25:29
  TRACK 71 AUDIO
    TITLE "0:"
    INDEX 01 01:28:49
  TRACK 72 AUDIO
    TITLE "4:cjc058_1394"
    INDEX 01 01:29:52
  TRACK 73 AUDIO
    TITLE "0:"
    INDEX 01 01:30:69
  TRACK 74 AUDIO
    TITLE "5:cjc058_1395"
    INDEX 01 01:31:24
  TRACK 75 AUDIO
    TITLE "0:"
    INDEX 01 01:35:02
  TRACK 76 AUDIO
    TITLE "4:cjc058_1396"
    INDEX 01 01:36:07
  TRACK 77 AUDIO
    TITLE "0:"
    INDEX 01 01:37:34
  TRACK 78 AUDIO
    TITLE "5:cjc058_1397"
    INDEX 01 01:37:62
  TRACK 79 AUDIO
    TITLE "0:"
    INDEX 01 01:39:00
  TRACK 80 AUDIO
    TITLE "4:cjc058_1398"
    INDEX 01 01:40:05
  TRACK 81 AUDIO
    TITLE "0:"
    INDEX 01 01:41:50
  TRACK 82 AUDIO
    TITLE "5:cjc058_1399"
    INDEX 01 01:42:06
  TRACK 83 AUDIO
    TITLE "0:"
    INDEX 01 01:44:62
  TRACK 84 AUDIO
    TITLE "4:cjc058_1400"
    INDEX 01 01:45:67
  TRACK 85 AUDIO
    TITLE "0:"
    INDEX 01 01:47:31
  TRACK 86 AUDIO
    TITLE "5:cjc058_1401"
    INDEX 01 01:47:60
  TRACK 87 AUDIO
    TITLE "0:"
    INDEX 01 01:49:32
  TRACK 88 AUDIO
    TITLE "4:cjc058_1402"
    INDEX 01 01:50:33
  TRACK 89 AUDIO
    TITLE "0:"
    INDEX 01 01:52:08
  TRACK 90 AUDIO
    TITLE "5:cjc058_1403"
    INDEX 01 01:52:38
  TRACK 91 AUDIO
    TITLE "0:"
    INDEX 01 01:54:01
  TRACK 92 AUDIO
    TITLE "4:cjc058_1404"
    INDEX 01 01:55:03
  TRACK 93 AUDIO
    TITLE "0:"
    INDEX 01 01:56:47
  TRACK 94 AUDIO
    TITLE "5:cjc058_1405"
    INDEX 01 01:57:02
  TRACK 95 AUDIO
    TITLE "0:"
    INDEX 01 01:58:36
  TRACK 96 AUDIO
    TITLE "4:cjc058_1406"
    INDEX 01 01:59:40
  TRACK 97 AUDIO
    TITLE "0:"
    INDEX 01 02:01:19
  TRACK 98 AUDIO
    TITLE "5:cjc058_1407"
    INDEX 01 02:01:48
  TRACK 99 AUDIO
    TITLE "0:"
    INDEX 01 02:03:24
  TRACK 100 AUDIO
    TITLE "4:cjc058_1408"
    INDEX 01 02:04:25
  TRACK 101 AUDIO
    TITLE "0:"
    INDEX 01 02:05:74
  TRACK 102 AUDIO
    TITLE "5:cjc058_1409"
    INDEX 01 02:06:26
  TRACK 103 AUDIO
    TITLE "0:"
    INDEX 01 02:09:60
  TRACK 104 AUDIO
    TITLE "4:cjc058_1410"
    INDEX 01 02:10:63
  TRACK 105 AUDIO
    TITLE "0:"
    INDEX 01 02:12:36
  TRACK 106 AUDIO
    TITLE "5:cjc058_1411"
    INDEX 01 02:12:68
  TRACK 107 AUDIO
    TITLE "0:"
    INDEX 01 02:15:17
